<?xml version="1.0" encoding="UTF-8"?>
<svg width="16px" height="19px" viewBox="0 0 16 19" version="1.1" xmlns="http://www.w3.org/2000/svg" xmlns:xlink="http://www.w3.org/1999/xlink">
    <!-- Generator: sketchtool 52.1 (67048) - http://www.bohemiancoding.com/sketch -->
    <title>4579017E-F562-44F1-8C06-06FB4809443B</title>
    <desc>Created with sketchtool.</desc>
    <defs>
        <linearGradient x1="0%" y1="39.241201%" x2="97.9152534%" y2="39.241201%" id="linearGradient-1">
            <stop stop-color="#0BF5C2" offset="0%"></stop>
            <stop stop-color="#04E1AF" offset="100%"></stop>
        </linearGradient>
        <linearGradient x1="0%" y1="36.9231088%" x2="100%" y2="36.9231088%" id="linearGradient-2">
            <stop stop-color="#0FFFCC" offset="0%"></stop>
            <stop stop-color="#04E1AF" offset="100%"></stop>
        </linearGradient>
        <path d="M12.5275697,0.953938962 C13.4955828,0.953938962 14.2848922,1.76016736 14.2848922,2.74814822 L14.2848922,10.1906272 C14.2848922,11.0618522 13.9041494,11.9367974 13.2172773,12.813684 C12.6631002,13.5211673 11.9192994,14.2175024 11.0316504,14.897405 C10.3491786,15.4201502 9.62047714,15.9038789 8.89196988,16.3378743 C8.63702256,16.4897547 8.40002987,16.6247324 8.18685954,16.7413571 C8.11179459,16.7824249 8.04491377,16.8183421 7.98695276,16.8489248 C7.9514325,16.8676667 7.92631631,16.8806984 7.91234088,16.8878346 L7.66934784,17.0119115 L7.4263548,16.8878346 C7.41237937,16.8806984 7.38726318,16.8676667 7.35174292,16.8489248 C7.29378191,16.8183421 7.22690109,16.7824249 7.15183614,16.7413571 C6.93866581,16.6247324 6.70167312,16.4897547 6.4467258,16.3378743 C5.71821854,15.9038789 4.98951712,15.4201502 4.30704528,14.897405 C3.41939623,14.2175024 2.67559547,13.5211673 2.12141838,12.813684 C1.43454631,11.9367974 1.05380352,11.0618522 1.05380352,10.1906272 L1.05380352,2.74814822 C1.05380352,1.76020066 1.84319849,0.953938962 2.81112602,0.953938962 L12.5275697,0.953938962 Z M7.6737022,15.7773547 C7.87539697,15.6668128 8.10068185,15.5382761 8.34357154,15.3933226 C9.03745587,14.9792214 9.73114629,14.5179186 10.3762432,14.0229262 C12.1440418,12.6664682 13.1920589,11.3261615 13.1920589,10.199948 L13.1920589,2.75389502 C13.1920589,2.37706608 12.8889069,2.06686775 12.5213127,2.06686775 L2.81738302,2.06686775 C2.44985795,2.06686775 2.1466368,2.37711602 2.1466368,2.75389502 L2.1466368,10.199948 C2.1466368,11.3261615 3.19465388,12.6664682 4.96245249,14.0229262 C5.60754939,14.5179186 6.30123981,14.9792214 6.99512414,15.3933226 C7.23801383,15.5382761 7.46329871,15.6668128 7.66499348,15.7773547 C7.66644842,15.7781521 7.66789988,15.7789473 7.66934784,15.7797403 C7.6707958,15.7789473 7.67224726,15.7781521 7.6737022,15.7773547 Z" id="path-3"></path>
        <filter x="-3.8%" y="-3.1%" width="107.6%" height="106.2%" filterUnits="objectBoundingBox" id="filter-4">
            <feGaussianBlur stdDeviation="0.5" in="SourceAlpha" result="shadowBlurInner1"></feGaussianBlur>
            <feOffset dx="0" dy="0" in="shadowBlurInner1" result="shadowOffsetInner1"></feOffset>
            <feComposite in="shadowOffsetInner1" in2="SourceAlpha" operator="arithmetic" k2="-1" k3="1" result="shadowInnerInner1"></feComposite>
            <feColorMatrix values="0 0 0 0 0   0 0 0 0 0   0 0 0 0 0  0 0 0 0.32775702 0" type="matrix" in="shadowInnerInner1"></feColorMatrix>
        </filter>
    </defs>
    <g id="Page-1" stroke="none" stroke-width="1" fill="none" fill-rule="evenodd">
        <g id="UIAssignment_LandingPage_Simplified-Copy" transform="translate(-299.000000, -1423.000000)">
            <g id="Skill-Icon" transform="translate(295.000000, 1420.000000)">
                <rect id="Rectangle" x="0" y="0" width="24" height="24"></rect>
                <g id="shield-3" transform="translate(4.000000, 3.000000)">
                    <g id="shield-2">
                        <g id="shield">
                            <path d="M13.7579881,1.1062531e-15 L1.52856622,1.1062531e-15 C0.687869683,1.1062531e-15 -8.52651283e-14,0.703499586 -8.52651283e-14,1.56345066 L-8.52651283e-14,10.9438504 C-8.52651283e-14,14.8525531 7.64327717,18.7607996 7.64327717,18.7607996 C7.64327717,18.7607996 15.2865543,14.8525531 15.2865543,10.9438504 L15.2865543,1.56345066 C15.2865543,0.703499586 14.5988334,0 13.7579881,1.1062531e-15 Z" id="Path" fill="url(#linearGradient-1)"></path>
                            <path d="M12.3528963,1.27191862 L2.93365808,1.27191862 C2.28614416,1.27191862 1.7563392,1.81146703 1.7563392,2.47100577 L1.7563392,9.66529544 C1.7563392,12.6630716 7.64327717,15.660498 7.64327717,15.660498 C7.64327717,15.660498 13.5302151,12.6630716 13.5302151,9.66529544 L13.5302151,2.47100577 C13.5302151,1.81146703 13.0005247,1.27191862 12.3528963,1.27191862 Z" id="Path" fill="url(#linearGradient-2)"></path>
                            <g id="Path" fill-rule="nonzero">
                                <use fill="#0BBD9B" xlink:href="#path-3"></use>
                                <use fill="black" fill-opacity="1" filter="url(#filter-4)" xlink:href="#path-3"></use>
                            </g>
                            <g id="Group-4" transform="translate(3.785887, 5.405654)">
                                <path d="M6.49039489,1.65780017 C6.23157022,1.65780017 6.02158039,1.87187459 6.02158039,2.13601176 L1.9377666,2.13601176 C1.9377666,1.87187459 1.72789885,1.65780017 1.4689521,1.65780017 C1.21000535,1.65780017 1.0001376,1.87187459 1.0001376,2.13601176 L1.0001376,4.69705898 C1.0001376,4.89905357 1.12466645,5.07937919 1.31133763,5.14737489 L3.82205903,6.06207911 C3.87309146,6.08063471 3.92644352,6.08985023 3.97979561,6.08985023 C4.03314767,6.08985023 4.08649973,6.08063471 4.13741004,6.06207911 L6.64813147,5.14737489 C6.83480265,5.07937919 6.9593315,4.89905357 6.9593315,4.69705898 L6.9593315,2.13601176 C6.95920939,1.87187459 6.74934168,1.65780017 6.49039489,1.65780017 Z" id="Path" fill="#0ABA98"></path>
                                <path d="M6.5112718,1.65780017 C6.25244712,1.65780017 6.0424573,1.87187459 6.0424573,2.13601176 L4.0005504,2.13601176 L4.0005504,6.08985023 C4.05390246,6.08985023 4.10725455,6.08063471 4.15828695,6.06207911 L6.66900837,5.14737489 C6.85555748,5.07937919 6.9800863,4.89905357 6.9800863,4.69705898 L6.9800863,2.13601176 C6.9800863,1.87187459 6.77021858,1.65780017 6.5112718,1.65780017 Z" id="Path" fill="#09A98A"></path>
                                <path d="M7.65657096,1.30838814 L4.14156099,0.0279268156 C4.03949616,-0.00930893852 3.92815272,-0.00930893852 3.82620998,0.0279268156 L0.311200034,1.30838814 C0.12452882,1.37638387 -1.42108547e-13,1.55670949 -1.42108547e-13,1.75882861 C-1.42108547e-13,1.96094771 0.12452882,2.1411488 0.311200034,2.20914453 L3.82620998,3.48973041 C3.8772424,3.50828601 3.93059446,3.51750153 3.98394655,3.51750153 C4.03729861,3.51750153 4.09065067,3.50828601 4.14156099,3.48973041 L7.65657096,2.20914453 C7.84324214,2.1411488 7.967771,1.96094771 7.967771,1.75882861 C7.967771,1.55670949 7.84312006,1.37638387 7.65657096,1.30838814 Z" id="Path" fill="#1CA288"></path>
                                <path d="M4.15828695,3.48969927 L7.67329692,2.20911339 C7.85984602,2.14111766 7.98449695,1.96091657 7.98449695,1.75879747 C7.98449695,1.55667835 7.85984602,1.37635273 7.67329692,1.308357 L4.15828695,0.027895676 C4.10725455,0.00921551989 4.05390246,-4.26325641e-14 4.0005504,-4.26325641e-14 L4.0005504,3.51747039 C4.05390246,3.51747039 4.10725455,3.50825487 4.15828695,3.48969927 Z" id="Path" fill="#298875"></path>
                            </g>
                        </g>
                    </g>
                </g>
            </g>
        </g>
    </g>
</svg>