<?xml version="1.0" encoding="UTF-8"?>
<svg width="108px" height="108px" viewBox="0 0 108 108" version="1.1" xmlns="http://www.w3.org/2000/svg" xmlns:xlink="http://www.w3.org/1999/xlink">
    <title>8F6AEF93-9877-4AB9-9401-B06F2D61BDA9</title>
    <desc>Created with sketchtool.</desc>
    <defs>
        <linearGradient x1="50%" y1="145.474234%" x2="50%" y2="4.7760701%" id="linearGradient-1">
            <stop stop-color="#F4D8CE" offset="0%"></stop>
            <stop stop-color="#FFFFFF" offset="100%"></stop>
        </linearGradient>
        <circle id="path-2" cx="54" cy="54" r="54"></circle>
        <filter x="-0.9%" y="-0.9%" width="101.9%" height="101.9%" filterUnits="objectBoundingBox" id="filter-3">
            <feGaussianBlur stdDeviation="0.5" in="SourceAlpha" result="shadowBlurInner1"></feGaussianBlur>
            <feOffset dx="0" dy="1" in="shadowBlurInner1" result="shadowOffsetInner1"></feOffset>
            <feComposite in="shadowOffsetInner1" in2="SourceAlpha" operator="arithmetic" k2="-1" k3="1" result="shadowInnerInner1"></feComposite>
            <feColorMatrix values="0 0 0 0 0.97254902   0 0 0 0 0.901960784   0 0 0 0 0.874509804  0 0 0 1 0" type="matrix" in="shadowInnerInner1"></feColorMatrix>
        </filter>
        <filter x="-25.0%" y="-22.6%" width="150.0%" height="145.3%" filterUnits="objectBoundingBox" id="filter-4">
            <feOffset dx="0" dy="2" in="SourceAlpha" result="shadowOffsetOuter1"></feOffset>
            <feGaussianBlur stdDeviation="2" in="shadowOffsetOuter1" result="shadowBlurOuter1"></feGaussianBlur>
            <feColorMatrix values="0 0 0 0 0   0 0 0 0 0   0 0 0 0 0  0 0 0 0.06 0" type="matrix" in="shadowBlurOuter1" result="shadowMatrixOuter1"></feColorMatrix>
            <feMerge>
                <feMergeNode in="shadowMatrixOuter1"></feMergeNode>
                <feMergeNode in="SourceGraphic"></feMergeNode>
            </feMerge>
        </filter>
        <linearGradient x1="50%" y1="116.923664%" x2="50%" y2="2.26030728%" id="linearGradient-5">
            <stop stop-color="#FF8668" offset="0%"></stop>
            <stop stop-color="#FFE7AF" offset="100%"></stop>
        </linearGradient>
        <linearGradient x1="50%" y1="0%" x2="50%" y2="107.900825%" id="linearGradient-6">
            <stop stop-color="#FFD8BF" offset="0%"></stop>
            <stop stop-color="#FF9D79" offset="100%"></stop>
        </linearGradient>
    </defs>
    <g id="Page-1" stroke="none" stroke-width="1" fill="none" fill-rule="evenodd">
        <g id="UIAssignment_LandingPage_Simplified-Copy" transform="translate(-1014.000000, -657.000000)">
            <g id="Group-3" transform="translate(1014.000000, 657.000000)">
                <g id="Oval-2">
                    <use fill="url(#linearGradient-1)" fill-rule="evenodd" xlink:href="#path-2"></use>
                    <use fill="black" fill-opacity="1" filter="url(#filter-3)" xlink:href="#path-2"></use>
                </g>
                <g id="brain" filter="url(#filter-4)" transform="translate(30.000000, 28.000000)">
                    <g id="Group-4">
                        <path d="M33.416581,3.45811616 C33.416581,3.45811616 36.8379888,2.60422727 38.5482905,6.87340404 C38.5482905,6.87340404 46.2459888,6.87340404 45.3905698,18.8265101 C45.3905698,18.8265101 50.5222793,26.5104394 42.824581,31.6335051 C42.824581,31.6335051 44.5351508,38.4635455 38.5477542,41.0249444 C38.5477542,41.0249444 40.258324,46.1474747 35.1263464,47.0013636 C35.1263464,47.0013636 29.1392179,57.2466919 24.0072402,47.8552525 C18.8406704,57.2466919 12.8532737,47.0013636 12.8532737,47.0013636 C7.72156425,46.1474747 9.43186592,41.0249444 9.43186592,41.0249444 C3.44473743,38.4635455 5.15503911,31.6335051 5.15503911,31.6335051 C-2.54265922,26.5109747 2.58905028,18.8265101 2.58905028,18.8265101 C1.73363128,6.87340404 9.43132961,6.87340404 9.43132961,6.87340404 C11.1421676,2.60422727 14.5630391,3.45811616 14.5630391,3.45811616 C19.6947486,-1.66441414 23.9715754,2.60422727 23.9715754,2.60422727 C24.0080447,2.60422727 28.2848715,-1.66468182 33.416581,3.45811616 Z" id="Fill-1" fill="url(#linearGradient-5)"></path>
                        <path d="M24.0080447,2.60476263 L24.0126034,2.60476263 L24.0080447,2.60476263 Z M13.8087151,4.29219697 C12.9530279,4.29219697 11.3068156,4.65730808 10.2824581,7.21281818 C10.1435531,7.5594596 9.80701676,7.78698485 9.43267039,7.78698485 C9.35356425,7.78805556 7.33515084,7.83463131 5.66748603,9.64546465 C3.93305028,11.5291061 3.20500559,14.5958788 3.50346369,18.7617323 C3.51767598,18.9635606 3.46431285,19.1651212 3.35195531,19.3334899 C3.16505028,19.6153535 -1.1643352,26.3292222 5.664,30.873303 C5.98578771,31.0874444 6.13810056,31.4803939 6.04424581,31.8548737 C5.98391061,32.1016717 4.60960894,37.9678081 9.79280447,40.1855101 C10.2309721,40.3726162 10.4508603,40.8632677 10.3009609,41.314303 C10.2953296,41.3311667 9.67106145,43.2894899 10.5146816,44.6773939 C10.9673296,45.4220707 11.8047821,45.9012121 13.0037095,46.100899 C13.2715978,46.1453333 13.5062346,46.3070101 13.6435307,46.5409596 C14.3635307,47.7674545 16.7637989,50.9434394 19.1345698,50.9054293 C20.5592849,50.8834798 21.9166927,49.7105202 23.1687151,47.418404 C23.3293408,47.1247626 23.6374525,46.9424747 23.9723799,46.9424747 C24.3073073,46.9424747 24.6502793,47.1250303 24.810905,47.418404 C26.0634637,49.7105202 27.4208715,50.8834798 28.8450503,50.9054293 C28.8587263,50.9054293 28.8724022,50.9054293 28.8858101,50.9054293 C31.2536313,50.9054293 33.6201117,47.7602273 34.3358212,46.5409596 C34.4731173,46.3070101 34.707486,46.1453333 34.9756425,46.100899 C36.178324,45.9009444 37.0179218,45.4193939 37.4694972,44.6701667 C38.3023911,43.2894899 37.6856313,41.3338434 37.6791955,41.314303 C37.5284916,40.8632677 37.7491844,40.3726162 38.1870838,40.1855101 C43.3978994,37.9565657 41.9983911,32.1035455 41.9361788,31.8548737 C41.842324,31.4803939 41.994905,31.0874444 42.3164246,30.873303 C45.1964246,28.9567374 46.4648045,26.4496768 46.0856313,23.4222525 C45.7952179,21.1020303 44.6405363,19.3508889 44.6284693,19.3334899 C44.5158436,19.1651212 44.4630168,18.9635606 44.4769609,18.7617323 C44.7748827,14.5961465 44.046838,11.5291061 42.3129385,9.64546465 C40.6452737,7.83463131 38.6268603,7.78859091 38.5418547,7.78698485 C38.172067,7.78243434 37.8352626,7.55544444 37.6979665,7.21281818 C36.3437765,3.83366667 33.9024804,4.28443434 33.6292291,4.34707071 C33.3208492,4.41666667 32.9912849,4.32699495 32.7689832,4.10455556 C30.8833073,2.2225202 28.9453408,1.51424747 27.0092514,1.99713636 C25.5848045,2.35261111 24.6639553,3.24210101 24.654838,3.25120202 C24.4832179,3.42251515 24.2501899,3.51887879 24.0075084,3.51887879 L23.9729162,3.51887879 C23.7302346,3.51887879 23.4972067,3.42251515 23.3255866,3.25120202 C23.319419,3.24477778 22.3661229,2.32423737 20.9019888,1.98080808 C18.9884246,1.53218182 17.0740559,2.24607576 15.2114413,4.10509091 C14.9840447,4.33208081 14.6544804,4.42309091 14.3423464,4.34519697 C14.278257,4.33020707 14.0843799,4.29219697 13.8087151,4.29219697 Z M12.2885363,47.8223283 C10.7474413,47.4829141 9.62306145,46.7406465 8.94248045,45.6115859 C8.07713966,44.1768384 8.19432402,42.4979697 8.37103911,41.5297828 C4.11378771,39.2775505 3.68634637,34.6973333 4.13818994,32.0368939 C0.241608939,29.1906869 -0.233027933,25.6827828 0.078301676,23.1952626 C0.353430168,21.0000455 1.27186592,19.2513131 1.65774302,18.5963081 C1.37859218,14.0289394 2.28496089,10.5898283 4.35512849,8.37105556 C5.96835754,6.64132828 7.85296089,6.15201515 8.80974302,6.01416162 C10.2687821,2.93427273 12.7489609,2.33788889 14.2586816,2.48323737 C17.0823687,-0.142671717 19.6942123,-0.205308081 21.4155084,0.224313131 C22.5503464,0.507515152 23.4395531,1.03778283 23.9906145,1.43849495 C24.5422123,1.03831818 25.4308827,0.507515152 26.5659888,0.224313131 C28.2870168,-0.204237374 30.8988603,-0.14160101 33.7225475,2.48323737 C35.2306592,2.33842424 37.7119106,2.93400505 39.171486,6.01416162 C40.1285363,6.15201515 42.0131397,6.64132828 43.6263687,8.37105556 C45.6957318,10.5898283 46.602905,14.0289394 46.3237542,18.5963081 C46.7096313,19.2518485 47.6286034,21.0000455 47.9031955,23.1952626 C48.2147933,25.6830505 47.7396201,29.1906869 43.8433073,32.0368939 C44.2948827,34.6973333 43.8674413,39.2775505 39.6099218,41.5297828 C39.7866369,42.4974343 39.9040894,44.1768384 39.0382123,45.6115859 C38.3578994,46.7403788 37.2332514,47.4829141 35.6924246,47.8223283 C34.9094078,49.0284798 32.1932514,52.7813081 28.8219888,52.7317879 C27.0285587,52.7063586 25.4075531,51.6474293 23.9903464,49.5812323 C22.5734078,51.6479646 20.9524022,52.7063586 19.1584358,52.7317879 C15.7480223,52.7323232 13.0664581,49.0207172 12.2885363,47.8223283 Z" id="Fill-3" fill="url(#linearGradient-6)"></path>
                    </g>
                    <path d="M32.9201207,14 C32.9182335,14 32.9160768,14 32.9136505,14 C32.4081637,13.9967058 32,13.5810902 32,13.0661002 C32,12.8599395 32.0657807,7.99031896 37.7884299,6.04812577 C38.2693837,5.88506389 38.7915852,6.14969629 38.9525322,6.640529 C39.1132095,7.13163623 38.8527828,7.66199909 38.370481,7.82588451 C33.9421475,9.3288538 33.8426677,12.9206073 33.8402414,13.0726885 C33.8335015,13.5849334 33.4229115,14 32.9201207,14" id="Fill-6" fill="#FFFFFF" opacity="0.430803571"></path>
                    <path d="M38.5289554,34 C38.0873473,34 37.6532284,33.9349114 37.2273736,33.8044618 C34.3718993,32.9286252 33.1072472,29.4018576 33.0548224,29.2520721 C32.8861849,28.7705798 33.1196432,28.2357094 33.5762299,28.0581455 C34.031267,27.8797646 34.5384707,28.1256852 34.7076247,28.6060881 C34.7174382,28.6344112 35.7253894,31.4133406 37.726055,32.0209251 C38.8489276,32.3621637 40.147927,31.9506621 41.5843156,30.7967691 C41.9722076,30.4852152 42.5243469,30.564193 42.8197853,30.9724266 C43.114449,31.3803878 43.0400729,31.9642789 42.6529556,32.2752881 C41.2256058,33.4231897 39.8431916,34 38.5289554,34" id="Fill-8" fill="#FFFFFF" opacity="0.430803571"></path>
                    <path d="M29.1006225,41 C29.0351891,41 28.9685617,40.9905391 28.9026507,40.9716174 C28.4677814,40.8447304 28.2024658,40.3327304 28.3084966,39.8257391 C28.3364371,39.6846609 28.8854565,36.7050435 26.2387482,33.6210783 C25.9204173,33.2501565 25.9204173,32.6488348 26.2387482,32.2781913 C26.5566016,31.9072696 27.0733819,31.9072696 27.3914741,32.2781913 C30.726188,36.1638261 29.9268979,40.1140174 29.8910767,40.2801391 C29.7984192,40.7117217 29.4659986,41 29.1006225,41" id="Fill-10" fill="#FFFFFF" opacity="0.430803571"></path>
                    <path d="M23.9998535,47 C23.4479273,47 23,46.6261677 23,46.1655399 L23,4.83446009 C23,4.37383225 23.4479273,4 23.9998535,4 C24.5520727,4 25,4.37383225 25,4.83446009 L25,46.1660289 C25,46.6266567 24.5520727,47 23.9998535,47" id="Fill-13" fill="#FFFFFF" opacity="0.430803571"></path>
                    <path d="M26.9468363,21 C26.741179,21 26.534689,20.9347933 26.3609487,20.7997417 C25.949634,20.4813473 25.8796938,19.8961238 26.2035834,19.4917875 C29.157445,15.8096537 29.1058225,10.0032539 29.1047123,9.94514077 C29.0972187,9.43085341 29.5149169,9.00769176 30.0383579,9.00032531 C30.5773412,8.98668374 30.9919865,9.40384309 30.9994801,9.91813045 C31.0033656,10.1830498 31.0566534,16.4499892 27.6909219,20.6453191 C27.5041373,20.87859 27.226597,21 26.9468363,21" id="Fill-15" fill="#FFFFFF" opacity="0.430803571"></path>
                    <path d="M26.9203125,45 C26.8235314,45 26.7251328,44.9846326 26.6286212,44.9520105 C26.1468723,44.7905176 25.8869921,44.270721 26.0473954,43.7889385 C26.1261143,43.5522262 28.0234555,38 32.0796358,38 C32.5875345,38 33,38.4122246 33,38.9201587 C33,39.4283623 32.5875345,39.840587 32.0796358,39.840587 C29.8132323,39.840587 28.2167482,43.1114235 27.7929601,44.3718225 C27.6638288,44.7568171 27.3047411,45 26.9203125,45" id="Fill-17" fill="#FFFFFF" opacity="0.430803571"></path>
                    <path d="M30.9083983,7 C30.719248,7 30.5292984,6.93858867 30.3665226,6.81043808 C29.9637123,6.49440807 29.8800599,5.89487643 30.1797699,5.4714467 L32.3611261,2.38601798 C32.661369,1.96146657 33.231484,1.87397646 33.6332287,2.18916521 C34.0363054,2.50519522 34.1199578,3.10472686 33.8202477,3.52815659 L31.6386251,6.61358531 C31.4603976,6.8668019 31.1862628,7 30.9083983,7" id="Fill-18" fill="#FFFFFF" opacity="0.430803571"></path>
                    <path d="M14.5,9 C15.8806152,9 17,10.1191406 17,11.5 C17,12.8806152 15.8806152,14 14.5,14 C13.1191406,14 12,12.8806152 12,11.5 C12,10.1191406 13.1191406,9 14.5,9" id="Fill-19" fill="#FFF9F7"></path>
                    <path d="M14.5,9.74987182 C13.5348275,9.74987182 12.7498718,10.5348275 12.7498718,11.5 C12.7498718,12.4651725 13.5348275,13.2501282 14.5,13.2501282 C15.4651725,13.2501282 16.2501282,12.4651725 16.2501282,11.5 C16.2501282,10.5348275 15.4651725,9.74987182 14.5,9.74987182 Z M14.5,15 C12.5701677,15 11,13.4298323 11,11.5 C11,9.57016773 12.5701677,8 14.5,8 C16.4298323,8 18,9.57016773 18,11.5 C18,13.4298323 16.4298323,15 14.5,15 Z" id="Fill-20" fill="#FFE0C5"></path>
                    <path d="M8.5,21 C9.88085938,21 11,22.1193848 11,23.5 C11,24.8806152 9.88085938,26 8.5,26 C7.11938477,26 6,24.8806152 6,23.5 C6,22.1193848 7.11938477,21 8.5,21" id="Fill-21" fill="#FFF9F7"></path>
                    <path d="M8.50012817,21.7500641 C7.53499103,21.7500641 6.75006409,22.5347347 6.75006409,23.4998718 C6.75006409,24.465009 7.53499103,25.2499359 8.50012817,25.2499359 C9.46500897,25.2499359 10.2499359,24.465009 10.2499359,23.4998718 C10.2499359,22.5347347 9.46500897,21.7500641 8.50012817,21.7500641 Z M8.50012817,27 C6.57011023,27 5,25.4296334 5,23.4998718 C5,21.5701102 6.57011023,20 8.50012817,20 C10.4298898,20 12,21.5701102 12,23.4998718 C12,25.4296334 10.4298898,27 8.50012817,27 Z" id="Fill-22" fill="#FFE0C5"></path>
                    <path d="M17.5,29 C18.8806152,29 20,30.1193848 20,31.5 C20,32.8806152 18.8806152,34 17.5,34 C16.1191406,34 15,32.8806152 15,31.5 C15,30.1193848 16.1191406,29 17.5,29" id="Fill-23" fill="#FFF9F7"></path>
                    <path d="M17.5,29.7500641 C16.5348275,29.7500641 15.7498718,30.5347347 15.7498718,31.4998718 C15.7498718,32.465009 16.5348275,33.2499359 17.5,33.2499359 C18.4651725,33.2499359 19.2501282,32.465009 19.2501282,31.4998718 C19.2501282,30.5347347 18.4651725,29.7500641 17.5,29.7500641 Z M17.5,35 C15.5701677,35 14,33.4296334 14,31.4998718 C14,29.5701102 15.5701677,28 17.5,28 C19.4298323,28 21,29.5701102 21,31.4998718 C21,33.4296334 19.4298323,35 17.5,35 Z" id="Fill-24" fill="#FFE0C5"></path>
                    <path d="M17.5,39 C18.8806152,39 20,40.1191406 20,41.5 C20,42.8806152 18.8806152,44 17.5,44 C16.1191406,44 15,42.8806152 15,41.5 C15,40.1191406 16.1191406,39 17.5,39" id="Fill-25" fill="#FFF9F7"></path>
                    <path d="M17.5,39.7498718 C16.5348275,39.7498718 15.7498718,40.5348275 15.7498718,41.5 C15.7498718,42.4651725 16.5348275,43.2501282 17.5,43.2501282 C18.4651725,43.2501282 19.2501282,42.4651725 19.2501282,41.5 C19.2501282,40.5348275 18.4651725,39.7498718 17.5,39.7498718 Z M17.5,45 C15.5701677,45 14,43.4298323 14,41.5 C14,39.5701677 15.5701677,38 17.5,38 C19.4298323,38 21,39.5701677 21,41.5 C21,43.4298323 19.4298323,45 17.5,45 Z" id="Fill-26" fill="#FFE0C5"></path>
                    <path d="M15,25 C14.447993,25 14,24.5891113 14,24.0831543 L14,14.9165771 C14,14.4106201 14.447993,14 15,14 C15.552007,14 16,14.4106201 16,14.9165771 L16,24.0831543 C16,24.5896484 15.552593,25 15,25" id="Fill-27" fill="#FFE0C5"></path>
                    <path d="M17.1111979,25 L10.8890625,25 C10.3981771,25 10,24.5517797 10,23.9998535 C10,23.4479273 10.3981771,23 10.8890625,23 L17.1111979,23 C17.6018229,23 18,23.4479273 18,23.9998535 C18,24.5517797 17.6023438,25 17.1111979,25" id="Fill-28" fill="#FFE0C5"></path>
                    <path d="M18,30 C17.447993,30 17,29.6080492 17,29.1248398 L17,23.8749039 C17,23.3919508 17.447993,23 18,23 C18.552007,23 19,23.3919508 19,23.8749039 L19,29.1248398 C19,29.6083056 18.552593,30 18,30" id="Fill-29" fill="#FFE0C5"></path>
                    <path d="M18,40 C17.447993,40 17,39.6160382 17,39.1429289 L17,34.8570711 C17,34.3839618 17.447993,34 18,34 C18.552007,34 19,34.3839618 19,34.8570711 L19,39.1429289 C19,39.6165404 18.552593,40 18,40" id="Fill-30" fill="#FFE0C5"></path>
                </g>
            </g>
        </g>
    </g>
</svg>