<?xml version="1.0" encoding="UTF-8"?>
<svg width="34px" height="34px" viewBox="0 0 34 34" version="1.1" xmlns="http://www.w3.org/2000/svg" xmlns:xlink="http://www.w3.org/1999/xlink">
    <!-- Generator: sketchtool 52.1 (67048) - http://www.bohemiancoding.com/sketch -->
    <title>C0862F9E-A227-4006-A42C-724591E66365</title>
    <desc>Created with sketchtool.</desc>
    <defs>
        <linearGradient x1="50%" y1="100%" x2="50%" y2="0%" id="linearGradient-1">
            <stop stop-color="#FB8E46" offset="0%"></stop>
            <stop stop-color="#FFD01E" offset="100%"></stop>
        </linearGradient>
    </defs>
    <g id="Page-1" stroke="none" stroke-width="1" fill="none" fill-rule="evenodd">
        <g id="UIAssignment_LandingPage_Simplified-Copy" transform="translate(-1071.000000, -51.000000)">
            <g id="Leaderboard" transform="translate(1071.000000, 51.000000)">
                <rect id="Rectangle-17" fill="url(#linearGradient-1)" x="0" y="0" width="34" height="34" rx="3.984288"></rect>
                <g id="Group-61" transform="translate(5.000000, 5.000000)" fill-rule="nonzero">
                    <rect id="Rectangle" x="0" y="0" width="24" height="24"></rect>
                    <path d="M22.146424,5.8826121 C21.910913,5.62751608 21.6249668,5.49984836 21.2884088,5.49984836 L17.6537237,5.49984836 L17.6537237,4.18739924 C17.6537237,3.58583811 17.4563153,3.07100101 17.0607469,2.64250483 C16.6653553,2.21415231 16.1897804,2 15.6345967,2 L8.36544752,2 C7.81017542,2 7.33473308,2.21410443 6.93929731,2.64250483 C6.54381733,3.07095312 6.34618785,3.58579022 6.34618785,4.18739924 L6.34618785,5.49989624 L2.71150276,5.49989624 C2.37503315,5.49989624 2.08899862,5.62742031 1.85335497,5.88265998 C1.61771132,6.13789966 1.5,6.44782671 1.5,6.81244114 L1.5,8.56243715 C1.5,9.20949128 1.67455576,9.86123837 2.0237557,10.5175826 C2.37286723,11.1737833 2.84393352,11.7664373 3.43721979,12.2948745 C4.03028504,12.823551 4.75803539,13.2679458 5.62047082,13.6280109 C6.48295046,13.988076 7.3894116,14.1909269 8.34020788,14.2363242 C8.69365125,14.7287979 9.09315366,15.161556 9.53906872,15.5350775 C9.85887397,15.8449567 10.0795772,16.1751401 10.2016203,16.5265376 C10.3235309,16.8772168 10.3845304,17.2851214 10.3845304,17.7500599 C10.3845304,18.242342 10.2563431,18.6569509 9.99961481,18.9938864 C9.74315177,19.3314923 9.33295235,19.4999601 8.76928177,19.4999601 C8.13820235,19.4999601 7.57669769,19.7074082 7.08445839,20.122017 C6.5923075,20.5369611 6.34618785,21.0587418 6.34618785,21.6876945 L6.34618785,22.562501 C6.34618785,22.6903124 6.38398101,22.7951857 6.45969993,22.877121 C6.53546305,22.9590563 6.63213397,23 6.7499779,23 L17.2500221,23 C17.3680428,23 17.4645369,22.9590563 17.5404769,22.877121 C17.615798,22.7951857 17.6536353,22.6903124 17.6536353,22.562501 L17.6536353,21.6876945 C17.6536353,21.058694 17.4076925,20.5371047 16.9151438,20.122017 C16.4229045,19.7074082 15.8613998,19.4999601 15.2303204,19.4999601 C14.6668266,19.4999601 14.2564504,19.3314444 14.0002084,18.9938864 C13.7436569,18.6569509 13.6156906,18.2423899 13.6156906,17.7500599 C13.6156906,17.2849298 13.6765133,16.8772168 13.7984239,16.5265376 C13.920688,16.1751401 14.1415239,15.8451482 14.4609755,15.5350775 C14.9069347,15.1614124 15.3065698,14.7284148 15.6596153,14.2363242 C16.6108094,14.1909269 17.5170495,13.9880282 18.379706,13.6280109 C19.2417878,13.2679458 19.9698476,12.823551 20.5628244,12.2948745 C21.1561107,11.7662458 21.627177,11.1737833 21.9762885,10.5175826 C22.3254,9.86123837 22.5,9.20953916 22.5,8.56243715 L22.5,6.81244114 C22.4998232,6.44801826 22.3819793,6.13799543 22.146424,5.8826121 Z M4.30796529,10.7771801 C3.51289451,10.0116047 3.11542542,9.27327725 3.11542542,8.56229349 L3.11542542,7.24979648 L6.34614365,7.24979648 C6.34614365,9.15494756 6.65732941,10.845659 7.27996615,12.3222181 C6.09383564,12.0579756 5.10312449,11.5427554 4.30796529,10.7771801 Z M20.8843978,8.56243715 C20.8843978,9.27342091 20.4871939,10.0119399 19.6921231,10.7774674 C18.8967429,11.5430428 17.906076,12.0581193 16.7199896,12.3223618 C17.3426264,10.8458506 17.6537679,9.15509123 17.6537679,7.24994014 L20.8843978,7.24994014 L20.8843978,8.56243715 Z" id="Shape" fill="#FFFFFF"></path>
                </g>
            </g>
        </g>
    </g>
</svg>