<?xml version="1.0" encoding="UTF-8"?>
<svg width="34px" height="34px" viewBox="0 0 34 34" version="1.1" xmlns="http://www.w3.org/2000/svg" xmlns:xlink="http://www.w3.org/1999/xlink">
    <!-- Generator: sketchtool 52.1 (67048) - http://www.bohemiancoding.com/sketch -->
    <title>62A4E59C-99C2-48AD-98D6-67D573CB6563</title>
    <desc>Created with sketchtool.</desc>
    <g id="Page-1" stroke="none" stroke-width="1" fill="none" fill-rule="evenodd">
        <g id="UIAssignment_LandingPage_Simplified-Copy" transform="translate(-1121.000000, -51.000000)">
            <g id="Group-36" transform="translate(1121.000000, 51.000000)">
                <rect id="Rectangle-17-Copy-2" fill="#71AEF3" x="0" y="0" width="34" height="34" rx="3.984288"></rect>
                <g id="bell" transform="translate(5.000000, 5.000000)">
                    <rect id="Rectangle" x="0" y="0" width="24" height="24"></rect>
                    <path d="M9.00049577,20 C9.00044068,20.0065669 9,20.0130792 9,20.0196461 C9,21.6656512 10.3431446,23 12,23 C13.6568554,23 15,21.6656512 15,20.0196461 C15,20.0130792 14.9995593,20.0065669 14.9995042,20 L9.00049577,20 Z" id="Path" fill="#FFFFFF"></path>
                    <path d="M20.7952384,17.2464892 L18.4569188,13.9835471 C18.4569188,12.9847067 18.4569188,10.5440485 18.4569188,9.91268673 C18.4569188,7.16731444 16.3986823,4.8788773 13.6681222,4.3631655 L13.6681222,3.10959609 C13.6680745,2.49681445 13.1451191,2 12.4999881,2 C11.8548571,2 11.3319017,2.49681445 11.3319017,3.10959609 L11.3319017,4.36321082 C8.60134161,4.87896794 6.5431051,7.16740507 6.5431051,9.91273205 C6.5431051,10.9874791 6.5431051,13.3606597 6.5431051,13.9835924 L4.20478547,17.2465346 C3.95847833,17.5902216 3.93243074,18.0351023 4.13709036,18.4026263 C4.34174998,18.7701502 4.74353164,19 5.18123607,19 L19.8187401,19 C20.2564445,19 20.6582262,18.7701049 20.8628858,18.4026263 C21.0675931,18.035057 21.0414978,17.5901763 20.7952384,17.2464892 Z" id="Path" fill="#FFFFFF"></path>
                </g>
            </g>
        </g>
    </g>
</svg>